#!OML:ASF H:\Pregnant\Project 1\Capture day 1\Session 1\femalepreg.ASF
:FULLY-SPECIFIED
:DEGREES
1295
root 1.31521 2.34975 19.7302 160.05 -87.8076 -189.043
lowerback 32.8961 2.98239 -6.65282
upperback 10.5601 0.368182 0.0244012
thorax -5.28041 -0.498302 3.47605
lowerneck -18.5671 3.40188 3.7116
upperneck 32.2299 0.569832 6.23838
head 14.1918 1.27351 1.90814
rclavicle 2.5842e-015 2.78299e-015
rhumerus -60.928 5.34308 -71.8306
rradius 31.4752
rwrist -20.7047
rhand -45.1125 -25.9986
rfingers 7.12502
rthumb 162.108 -235.196
lclavicle 2.5842e-015 2.78299e-015
lhumerus -65.6353 36.9958 38.5075
lradius 13.1309
lwrist 34.9261
lhand 118.734 188.845
lfingers 7.12502
lthumb 146.644 -144.231
rfemur -136.472 -21.2185 65.8802
rtibia 130.989
rfoot 23.52 13.2873
rtoes 8.25299
lfemur -138.612 18.7933 -72.6679
ltibia 141.984
lfoot 16.5219 -8.53669
ltoes 5.54561
1296
root 1.31945 2.34251 19.7305 159.362 -87.7645 -188.502
lowerback 32.6818 2.79659 -6.55687
upperback 10.5695 0.186084 0.0101398
thorax -5.17444 -0.585517 3.47336
lowerneck -18.434 3.50944 3.83352
upperneck 32.1868 0.767541 6.04449
head 14.14 1.34439 1.83805
rclavicle 2.19657e-014 1.19271e-014
rhumerus -62.0094 5.1876 -72.9512
rradius 32.2275
rwrist -20.6221
rhand -45.172 -25.7073
rfingers 7.12502
rthumb 162.051 -234.899
lclavicle 2.19657e-014 1.19271e-014
lhumerus -65.7105 36.8609 38.7365
lradius 13.1431
lwrist 35.4148
lhand 118.59 189.212
lfingers 7.12502
lthumb 146.507 -143.893
rfemur -136.247 -21.2274 65.7175
rtibia 130.957
rfoot 23.3777 13.2528
rtoes 8.22648
lfemur -138.507 18.7451 -72.4514
ltibia 141.99
lfoot 16.4631 -8.62453
ltoes 4.5629
1297
root 1.32435 2.33568 19.7315 159.049 -87.7062 -188.343
lowerback 32.4574 2.60632 -6.45838
upperback 10.5808 -0.00382314 -0.035453
thorax -5.06148 -0.676315 3.43798
lowerneck -18.2993 3.62654 3.99162
upperneck 32.1469 0.95751 5.87062
head 14.0916 1.4188 1.76866
rclavicle -2.04748e-014 -3.81667e-014
rhumerus -63.0265 5.06141 -74.1228
rradius 33.103
rwrist -20.6829
rhand -45.117 -25.3207
rfingers 7.12502
rthumb 162.104 -234.517
lclavicle -2.04748e-014 -3.81667e-014
lhumerus -65.7003 36.6456 39.0861
lradius 13.1711
lwrist 36.0351
lhand 118.433 189.658
lfingers 7.12502
lthumb 146.358 -143.479
rfemur -136.004 -21.219 65.5282
rtibia 130.917
rfoot 23.2782 13.1773
rtoes 8.23146
lfemur -138.399 18.7315 -72.2532
ltibia 141.993
lfoot 16.3973 -8.72821
ltoes 3.62431
1298
root 1.33017 2.32945 19.7332 159.317 -87.6325 -188.775
lowerback 31.8703 2.38102 -6.32498
upperback 10.9548 -0.18135 -0.262778
thorax -4.94573 -0.757927 3.46909
lowerneck -18.1641 3.75018 4.17903
upperneck 32.1122 1.1367 5.71987
head 14.0476 1.49502 1.70194
rclavicle -1.88845e-014 -1.15295e-014
rhumerus -63.9688 4.99138 -75.364
rradius 34.058
rwrist -20.874
rhand -44.9479 -24.8692
rfingers 7.12502
rthumb 162.266 -234.081
lclavicle -1.88845e-014 -1.15295e-014
lhumerus -65.5961 36.3361 39.5824
lradius 13.2181
lwrist 36.8018
lhand 118.263 190.208
lfingers 7.12502
lthumb 146.196 -142.965
rfemur -135.735 -21.1958 65.3028
rtibia 130.868
rfoot 23.2191 13.0583
rtoes 8.2436
lfemur -138.278 18.7694 -72.0867
ltibia 141.989
lfoot 16.3201 -8.85338
ltoes 2.76196
1299
root 1.33701 2.32382 19.7359 160.202 -87.545 -189.838
lowerback 31.6602 2.19871 -6.24758
upperback 10.9556 -0.377324 -0.362209
thorax -4.8343 -0.851904 3.3777
lowerneck -18.0293 3.87762 4.38951
upperneck 32.0838 1.3029 5.59385
head 14.0083 1.57155 1.63927
rclavicle 1.49089e-014 -8.74653e-015
rhumerus -64.8236 4.99109 -76.6781
rradius 35.0462
rwrist -21.1613
rhand -44.6934 -24.4154
rfingers 7.12502
rthumb 162.511 -233.649
lclavicle 1.49089e-014 -8.74653e-015
lhumerus -65.3955 35.9233 40.242
lradius 13.2872
lwrist 37.7249
lhand 118.08 190.883
lfingers 7.12502
lthumb 146.022 -142.328
rfemur -135.439 -21.163 65.038
rtibia 130.811
rfoot 23.1958 12.9038
rtoes 8.21307
lfemur -138.133 18.8657 -71.9574
ltibia 141.976
lfoot 16.2292 -9.00182
ltoes 1.99408
1300
root 1.34496 2.31873 19.7394 161.575 -87.447 -191.409
lowerback 31.464 2.0243 -6.18921
upperback 10.9555 -0.572951 -0.481712
thorax -4.73079 -0.945833 3.27405
lowerneck -17.8959 4.00624 4.613
upperneck 32.0634 1.45647 5.4911
head 13.9743 1.64716 1.58188
rclavicle 2.42517e-014 8.34896e-015
rhumerus -65.5778 5.06735 -78.0478
rradius 36.0229
rwrist -21.5028
rhand -44.4184 -24.0556
rfingers 7.12502
rthumb 162.776 -233.312
lclavicle 2.42517e-014 8.34896e-015
lhumerus -65.1044 35.4023 41.0795
lradius 13.3821
lwrist 38.8156
lhand 117.883 191.706
lfingers 7.12502
lthumb 145.835 -141.547
rfemur -135.114 -21.1305 64.7372
rtibia 130.747
rfoot 23.2001 12.73
rtoes 8.08314
lfemur -137.958 19.022 -71.8643
ltibia 141.952
lfoot 16.1223 -9.17522
ltoes 1.31907
